<svg xmlns="http://www.w3.org/2000/svg" viewBox="0 0 32 28">
  <defs>
    <style>
      .cls-1 {
        fill: #7de2e2;
      }
    </style>
  </defs>
  <g id="comment" transform="translate(-1278 -1335.118)">
    <path id="comment-2" data-name="comment" class="cls-1" d="M16,32C7.163,32,0,37.819,0,45a11.539,11.539,0,0,0,3.563,8.169A15.9,15.9,0,0,1,.138,59.156a.5.5,0,0,0-.094.544A.489.489,0,0,0,.5,60a14.293,14.293,0,0,0,8.788-3.212A19.061,19.061,0,0,0,16,58c8.838,0,16-5.819,16-13S24.838,32,16,32Z" transform="translate(1278 1303.118)"/>
  </g>
</svg>
