<svg id="Layer_1" data-name="Layer 1" xmlns="http://www.w3.org/2000/svg" viewBox="0 0 170.05 170.04"><defs><style>.cls-1{fill:#69bfe2;}.cls-2{fill:#97d68f;}.cls-3{fill:#445258;}.cls-4{opacity:0.1;isolation:isolate;}</style></defs><title>earth</title><g id="earth-globe"><circle id="Ellipse_6" data-name="Ellipse 6" class="cls-1" cx="85.04" cy="85.02" r="82.51"/><g id="Group_4" data-name="Group 4"><path id="Path_40" data-name="Path 40" class="cls-2" d="M118.37,33.63a57.29,57.29,0,0,0-.54,8.28c0,7.78,2.46,21.15,11.46,19.86s9.57-10,5.38-14.82-4.2-8.72,0-8.65c8.36.14,16.38,22,9.19,27-8.53,6-18.47,10.37-17.16,19.93,1.49,10.85,12.88,15.14,20.3,7.23s7-18.26,12.18-22.35,11.79.15,18.1,4.32,8.39,6.7,12.66,8.12a4,4,0,0,0,1.62.18,86.08,86.08,0,0,0-4-7.9A82.47,82.47,0,0,0,118.37,33.63Z" transform="translate(-31.08 -31.09)"/><path id="Path_41" data-name="Path 41" class="cls-2" d="M177,91.4c-13.67-4.17-30.11,13-34.09,21-3.62,7.32-6,17.83,3.15,26.2,7.75,7.09,27.6,7.85,38.71,23.22a82.64,82.64,0,0,0,9.74-71.44A24.77,24.77,0,0,1,177,91.4Z" transform="translate(-31.08 -31.09)"/><path id="Path_42" data-name="Path 42" class="cls-2" d="M103.14,165.62c-3.89,1.87-12,7.94-12.89-5.2S82.07,148.9,77,151.85c-6.42,3.71,0,9.11-6.26,12.33-12.34,6.39-22.26-17.1-23-23.23s9.63-8.21,13.36-1.74,10.41,4.12,6.24-1.13,1.53-6.62-1.31-26.79C63.7,94.72,51.82,88,40.62,82.82a82.57,82.57,0,0,0,24.79,98.41c6.63-1.61,12-4.53,14.7-4.34C83,177.1,88.56,179,81.38,191a82.57,82.57,0,0,0,59.16,4,105.29,105.29,0,0,0-9.29-28.34C124.71,153.94,107,163.76,103.14,165.62Z" transform="translate(-31.08 -31.09)"/></g><path id="Path_43" data-name="Path 43" class="cls-3" d="M98.21,85.1h0a6.33,6.33,0,0,1-8.64-2.31h0l-2.32-4a1.7,1.7,0,0,1,.62-2.3l8-4.64a1.7,1.7,0,0,1,2.31.62l2.31,4A6.32,6.32,0,0,1,98.21,85.1Z" transform="translate(-31.08 -31.09)"/><path id="Path_44" data-name="Path 44" class="cls-4" d="M130.38,34.85a82.51,82.51,0,0,1-44.87,157.9,82.52,82.52,0,1,0,44.87-157.9Z" transform="translate(-31.08 -31.09)"/><path id="Path_45" data-name="Path 45" d="M102.68,75.22l-2.31-4a4.18,4.18,0,0,0-5.71-1.53l-8,4.63A4.18,4.18,0,0,0,85.1,80l2.31,4a8.82,8.82,0,1,0,15.37-8.65A1.4,1.4,0,0,1,102.68,75.22Zm-11,6.32-1.92-3.31,6.64-3.84,1.92,3.32a3.83,3.83,0,1,1-6.64,3.83ZM114.8,64.91l-1.88-3.24a2.49,2.49,0,0,0-4.31,2.49l1.87,3.25a2.5,2.5,0,0,0,4.32-2.5Zm-38,22-1.87-3.24a2.49,2.49,0,0,0-4.32,2.49h0l1.88,3.24a2.49,2.49,0,0,0,4.31-2.49Zm86.8-41.33a2.49,2.49,0,1,0-2.78,4.14A79.27,79.27,0,0,1,185.42,76.1c.35.61.69,1.23,1,1.84-.68-.47-1.39-1-2.22-1.62-1.52-1.14-3.24-2.42-5.55-3.94-6.4-4.23-14.36-9.48-21-4.2-3,2.38-4.36,6.18-5.8,10.2s-3.09,8.62-6.64,12.41c-2.71,2.87-6.13,3.93-9.4,2.88-3.5-1.11-6-4.47-6.62-8.75-.83-6,3.9-9.55,11.79-14.68,1.42-.93,2.89-1.88,4.32-2.88,4-2.79,5-9.1,2.6-16.87A29.84,29.84,0,0,0,143,40.77l0-.05q3.28,1.17,6.47,2.61a2.49,2.49,0,0,0,2.07-4.53,85.84,85.84,0,0,0-32.92-7.66h-.22c-1.86-.05-3.71-.05-5.57,0A85,85,0,0,0,92.47,197.76,2.49,2.49,0,1,0,93.85,193a79.49,79.49,0,0,1-9-3.18c2.62-5.08,3.19-8.94,1.73-11.73-1.13-2.16-3.38-3.46-6.33-3.67-2-.14-4.49.77-7.63,1.91-2,.73-4.26,1.55-6.68,2.2a80.12,80.12,0,0,1-27.16-83.1,82.5,82.5,0,0,1,3.07-9.23c9.54,4.64,18.59,10.58,21.26,23.09a2.49,2.49,0,0,0,4.88-1c-3.14-14.71-13.8-21.6-24.13-26.62A80.14,80.14,0,0,1,113,36.14c.87,0,1.74,0,2.61-.06-.16,1.89-.25,3.84-.24,5.84a44.47,44.47,0,0,0,1.3,10.47c1.13,4.37,2.88,7.6,5.2,9.61a9.52,9.52,0,0,0,7.81,2.23c4.64-.67,8-3.1,9.36-6.85a12.23,12.23,0,0,0-2.45-12.05c-2.09-2.42-2.52-3.95-2.54-4.48a2.68,2.68,0,0,1,.63-.05c2.83,0,6.64,5.05,8.5,11.15,1.61,5.27,1.33,9.93-.69,11.34-1.36.95-2.8,1.88-4.18,2.78-7.54,4.9-15.33,10-14,19.53.85,6.21,4.7,11.12,10,12.83,5.1,1.62,10.53,0,14.54-4.23,4.26-4.54,6.17-9.86,7.7-14.13,1.24-3.48,2.32-6.48,4.2-8,3.57-2.83,8.54.06,15.19,4.45,2.18,1.45,3.84,2.68,5.31,3.78,2.68,2,4.81,3.59,7.93,4.63a6,6,0,0,0,.73.18c.53,1.26,1,2.53,1.49,3.81a21.89,21.89,0,0,1-13.65.08c-15.65-4.77-33.07,14.27-37,22.31-5.66,11.44-4.34,21.79,3.7,29.15,3.28,3,8.1,4.84,13.67,7,8.1,3.09,17.23,6.56,23.66,14.53a80.55,80.55,0,0,1-39.28,29.73,106.9,106.9,0,0,0-9-26.24c-2.17-4.2-6.81-8.91-16.57-7.44-5.79.87-11.33,3.62-14,4.95l-.84.41c-.48.23-1,.51-1.55.8-1.76.94-4.7,2.52-6,1.82-.35-.2-1.53-1.19-1.82-5.74-.4-6.21-2.27-10.25-5.56-12-3-1.62-7-1.13-11.46,1.45s-4.46,6.19-4.44,8.57c0,2,0,2.8-1.71,3.7a6.44,6.44,0,0,1-6.48-.11c-7.19-3.84-12.43-17.4-12.86-21.2A2.61,2.61,0,0,1,52.34,138,5.63,5.63,0,0,1,59,140.45c2.29,4,5.52,5.27,7.77,5.16a4.54,4.54,0,0,0,4-2.61c.5-1.1,1-3.41-1.47-6.47-1.27-1.59-1.21-2.24-.72-5.38a52.83,52.83,0,0,0,.78-9.72,2.49,2.49,0,1,0-5,0,49,49,0,0,1-.72,8.9c-.52,3.3-.93,5.91,1.74,9.26a4.46,4.46,0,0,1,.61.94A5.42,5.42,0,0,1,63.27,138a10.62,10.62,0,0,0-12.48-4.68c-3.75,1.23-5.91,4.35-5.51,7.94.6,5.34,6.58,20.29,15.46,25a11.49,11.49,0,0,0,11.11.14c4.45-2.3,4.42-5.83,4.41-8.17,0-2.11,0-3.08,1.95-4.22,1.64-.95,4.7-2.39,6.62-1.36,1.62.86,2.66,3.68,2.94,7.94.33,5.12,1.75,8.31,4.36,9.76,3.63,2,7.91-.26,10.73-1.78l1.36-.7.9-.44c12.9-6.41,20.5-6.3,23.93.32a103.76,103.76,0,0,1,8.64,25.47,79.61,79.61,0,0,1-31,2.38,2.49,2.49,0,1,0-.59,4.94,85,85,0,0,0,57.43-155ZM74.35,181c2.28-.83,4.63-1.69,5.58-1.62.68,0,1.87.24,2.27,1,.25.49.78,2.36-1.84,7.35a78,78,0,0,1-9.43-5.52C72.14,181.79,73.28,181.38,74.35,181ZM129.51,38.61c-1.21,2.59,0,6.13,3.28,10a7.27,7.27,0,0,1,1.55,7c-.74,2-2.61,3.26-5.4,3.66a4.49,4.49,0,0,1-3.84-1.08c-3.27-2.81-4.75-10.22-4.78-16.32a56.67,56.67,0,0,1,.25-5.68,80.3,80.3,0,0,1,9.78,1.17A4.43,4.43,0,0,0,129.51,38.61Zm63.9,98.22a80.23,80.23,0,0,1-8.83,20.78c-7.2-8.15-16.83-11.82-24.72-14.83-5.1-1.94-9.5-3.61-12.08-6-6.45-5.9-7.32-13.73-2.61-23.27,3.65-7.38,19.08-23.44,31.13-19.76A27,27,0,0,0,193,93.66,79.54,79.54,0,0,1,193.41,136.83Z" transform="translate(-31.08 -31.09)"/></g></svg>