<svg xmlns="http://www.w3.org/2000/svg" viewBox="0 0 31.5 32">
  <defs>
    <style>
      .cls-1 {
        fill: #92dd7a;
      }
    </style>
  </defs>
  <g id="flag-solid" transform="translate(-1226 -1333)">
    <path id="flag-solid-2" data-name="flag-solid" class="cls-1" d="M29.348,6.174C26,6.174,23.233,4,19.022,4a12.148,12.148,0,0,0-4.253.751A3.5,3.5,0,1,0,9.5,6.372V30.5A1.5,1.5,0,0,0,11,32h1a1.5,1.5,0,0,0,1.5-1.5V24.6a17.462,17.462,0,0,1,7.152-1.383c3.349,0,6.115,2.174,10.326,2.174a13.084,13.084,0,0,0,7.657-2.554,2,2,0,0,0,.865-1.647V6a2,2,0,0,0-2.843-1.814A18.2,18.2,0,0,1,29.348,6.174Z" transform="translate(1218 1333)"/>
  </g>
</svg>
