<svg xmlns="http://www.w3.org/2000/svg" viewBox="0 0 171.25 141">
  <defs>
    <style>
      .cls-1 {
        fill: #bab8b9;
      }

      .cls-2 {
        fill: #d4d2d3;
      }

      .cls-3 {
        fill: #465059;
      }

      .cls-4 {
        fill: #ffcd38;
      }
    </style>
  </defs>
  <g id="obstacle" transform="translate(-608 -866)">
    <path id="Path_46" data-name="Path 46" class="cls-1" d="M71.281,260.055H194.848v15.174H71.281Zm0,0" transform="translate(560.56 692.927)"/>
    <path id="Path_47" data-name="Path 47" class="cls-2" d="M48.6,113.672H63.774V207.3H48.6Zm0,0" transform="translate(575.654 790.348)"/>
    <path id="Path_48" data-name="Path 48" class="cls-3" d="M50.728,373.172H25.656a4.093,4.093,0,0,0-4.093,4.092v5.49a4.093,4.093,0,0,0,4.093,4.092H50.728a4.093,4.093,0,0,0,4.093-4.092v-5.49A4.092,4.092,0,0,0,50.728,373.172Zm0,0" transform="translate(593.65 617.644)"/>
    <path id="Path_49" data-name="Path 49" class="cls-2" d="M418.035,113.672h15.174V207.3H418.035Zm0,0" transform="translate(329.786 790.348)"/>
    <g id="Group_5" data-name="Group 5" transform="translate(610.509 868.509)">
      <path id="Path_50" data-name="Path 50" class="cls-3" d="M395.093,373.172h25.072a4.093,4.093,0,0,1,4.093,4.092v5.49a4.093,4.093,0,0,1-4.093,4.092H395.093A4.093,4.093,0,0,1,391,382.754v-5.49A4.093,4.093,0,0,1,395.093,373.172Zm0,0" transform="translate(-262.73 -250.864)"/>
      <path id="Path_51" data-name="Path 51" class="cls-3" d="M43.014,7.5,18.45,19.5,7.5,43.012V55.995a7.323,7.323,0,0,0,7.324,7.326h6.423L56.8,38.9,77.07,7.5Zm0,0" transform="translate(-7.5 -7.5)"/>
      <path id="Path_52" data-name="Path 52" class="cls-3" d="M167.464,7.5,126.11,38.9,111.641,63.32H145.7l38.454-27.91L201.52,7.5Zm0,0" transform="translate(-76.808 -7.5)"/>
      <path id="Path_53" data-name="Path 53" class="cls-3" d="M345.435,7.5H332.323L293.869,35.41,276.5,63.32h34.059l30.184-13.044L352.76,21.119V14.824A7.325,7.325,0,0,0,345.435,7.5Zm0,0" transform="translate(-186.527 -7.5)"/>
    </g>
    <path id="Path_54" data-name="Path 54" class="cls-4" d="M43.014,7.5,7.5,43.012V14.824A7.325,7.325,0,0,1,14.824,7.5Zm0,0" transform="translate(603.009 861.009)"/>
    <path id="Path_55" data-name="Path 55" class="cls-4" d="M125.509,7.5,69.686,63.32H48.6L104.425,7.5Zm0,0" transform="translate(575.654 861.009)"/>
    <path id="Path_56" data-name="Path 56" class="cls-4" d="M290.369,7.5,234.546,63.32H213.461L269.284,7.5Zm0,0" transform="translate(465.936 861.009)"/>
    <path id="Path_57" data-name="Path 57" class="cls-4" d="M420.529,48.219V83.094A7.323,7.323,0,0,1,413.2,90.42H378.328Zm0,0" transform="translate(356.212 833.909)"/>
    <path id="Path_58" data-name="Path 58" class="cls-1" d="M48.6,174.391H63.774v10.1H48.6Zm0,0" transform="translate(575.654 749.938)"/>
    <path id="Path_59" data-name="Path 59" class="cls-1" d="M418.035,174.391h15.174v10.1H418.035Zm0,0" transform="translate(329.786 749.938)"/>
    <path id="Path_60" data-name="Path 60" d="M9.833,0A9.844,9.844,0,0,0,0,9.833V51a9.845,9.845,0,0,0,9.833,9.834h3.914v61.47H11.305a6.609,6.609,0,0,0-6.6,6.6v5.49a6.61,6.61,0,0,0,6.6,6.6H36.378a6.61,6.61,0,0,0,6.6-6.6v-5.49a6.609,6.609,0,0,0-6.6-6.6H33.937V104.664H137.313v17.643h-2.442a6.608,6.608,0,0,0-6.6,6.6v5.49a6.609,6.609,0,0,0,6.6,6.6h25.074a6.609,6.609,0,0,0,6.6-6.6v-5.49a6.608,6.608,0,0,0-6.6-6.6H157.5V60.838h3.914A9.845,9.845,0,0,0,171.25,51V9.833A9.844,9.844,0,0,0,161.417,0ZM5.017,51V39.059L39.061,5.017h26.96L54.741,16.3a2.509,2.509,0,1,0,3.547,3.549L73.118,5.017h13.99L36.3,55.82l-13.928-.063,29.141-29.14a2.508,2.508,0,0,0-3.547-3.547L15.216,55.82H9.833A4.822,4.822,0,0,1,5.017,51ZM94.2,5.017h26.96L70.357,55.82H43.4Zm48.047,0L91.443,55.82H77.453l50.806-50.8ZM37.963,128.908v5.49a1.586,1.586,0,0,1-1.585,1.585H11.305A1.586,1.586,0,0,1,9.721,134.4v-5.49a1.586,1.586,0,0,1,1.585-1.584H36.378A1.586,1.586,0,0,1,37.963,128.908Zm-19.2-6.6V60.838H28.92v61.47Zm118.548-61.47V84.474h-17.7a2.509,2.509,0,0,0,0,5.017h17.7V99.647H33.937V89.491h75.651a2.509,2.509,0,1,0,0-5.017H33.937V60.838Zm24.217,68.071v5.49a1.586,1.586,0,0,1-1.585,1.585H134.872a1.586,1.586,0,0,1-1.585-1.585v-5.49a1.586,1.586,0,0,1,1.585-1.584h25.072A1.586,1.586,0,0,1,161.53,128.908Zm-9.044-6.6H142.33V60.838h10.156Zm8.931-66.487H132.6l33.635-33.637V51A4.822,4.822,0,0,1,161.417,55.82Zm4.816-45.987v5.256L125.5,55.82H98.539l50.806-50.8h12.072A4.822,4.822,0,0,1,166.233,9.833ZM9.833,5.017H31.966L5.017,31.963V9.833A4.822,4.822,0,0,1,9.833,5.017Zm0,0" transform="translate(608 866)"/>
  </g>
</svg>
