<svg id="Layer_1" data-name="Layer 1" xmlns="http://www.w3.org/2000/svg" viewBox="0 0 512 511.97"><defs><style>.cls-1{fill:#ffcd38;}.cls-2{fill:#e7b835;}.cls-3{fill:#da5b65;}.cls-4{fill:#3c474d;}.cls-5{fill:#d4d2d3;}.cls-6{fill:#efedee;}.cls-7{fill:#49c3e0;}.cls-8{fill:#465059;}</style></defs><title>spaceship</title><path class="cls-1" d="M178.75,413.51l-24.56-55.72L98.48,333.24S-12.59,343.77,10.72,488.92a14.94,14.94,0,0,0,12.35,12.35C168.21,524.58,178.75,413.51,178.75,413.51Z" transform="translate(0 0)"/><path class="cls-2" d="M11.83,473.46a16.17,16.17,0,0,1-3.21-.88c.51,5.26,1.19,10.68,2.1,16.34a14.94,14.94,0,0,0,12.35,12.35c145.14,23.31,155.68-87.76,155.68-87.76l-4.07-9.23C160.88,438.41,121.57,491.08,11.83,473.46Z" transform="translate(0 0)"/><path class="cls-3" d="M59.34,452.65c.34-31.49,7.7-57.32,21.71-75.69a90.35,90.35,0,0,1,39-28.94l32.13,11.77L164,391.92a90.32,90.32,0,0,1-28.94,39C116.66,445,90.82,452.31,59.34,452.65Z" transform="translate(0 0)"/><path class="cls-4" d="M136.22,307s-15.87-2-31.35,2.13a14.39,14.39,0,0,0-6.39,24.08l80.27,80.27a14.38,14.38,0,0,0,24.07-6.4c4.09-15.48,2.14-31.34,2.14-31.34l-21.27-54.34Z" transform="translate(0 0)"/><path class="cls-5" d="M261.11,82.77c-41.92,17.2-118.2-4-212.92,70.09l20,53.09,54.26,21.19,91.17-24.81,63.75-130.1Z" transform="translate(0 0)"/><path class="cls-5" d="M439.76,234.6l-73.05,7.57L284.84,389.51,303.29,441l55.84,22.77C438.75,362,408.29,281.46,433.78,242Z" transform="translate(0 0)"/><path class="cls-6" d="M494.16,32.13a19.33,19.33,0,0,0-14.3-14.3c-32-7.68-123.09-25-163.44,15.36l-194,194,64.65,97.72,97.72,64.65,194-193.95C519.14,155.22,501.84,64.11,494.16,32.13Z" transform="translate(0 0)"/><path class="cls-7" d="M465.25,59.92a16.35,16.35,0,0,0-13.18-13.18c-45.24-8.19-93.2-7.88-111.59,10.51l-13.2,13.21a15.61,15.61,0,0,0,0,22.08l92.17,92.17a15.6,15.6,0,0,0,22.07,0l13.21-13.21C473.12,153.12,473.44,105.16,465.25,59.92Z" transform="translate(0 0)"/><path class="cls-8" d="M284.84,389.51l-33.07,33.07L89.4,260.21l33.07-33.07Z" transform="translate(0 0)"/><path class="cls-4" d="M122.47,227.14,89.4,260.21,34.55,205.35a29,29,0,0,1,1.56-42.61q6.09-5.2,12.08-9.88Z" transform="translate(0 0)"/><path class="cls-4" d="M306.63,477.44l-54.86-54.86,33.07-33.06,74.29,74.28c-3.11,4-6.42,8-9.88,12.08A29.06,29.06,0,0,1,306.63,477.44Z" transform="translate(0 0)"/><path d="M453.41,39.36a311.18,311.18,0,0,0-54.1-5.25c-30.7,0-52.28,6-64.13,17.85L322,65.17a23.1,23.1,0,0,0,0,32.68L414.15,190a23.12,23.12,0,0,0,32.69,0l13.2-13.2c26.71-26.71,16.39-97.24,12.6-118.23A24,24,0,0,0,453.41,39.36Zm-4,126.85-13.2,13.2a8.1,8.1,0,0,1-11.47,0L332.59,87.25a8.11,8.11,0,0,1,0-11.48l13.2-13.2c8.68-8.68,27.69-13.46,53.52-13.46a294.5,294.5,0,0,1,51.43,5,8.89,8.89,0,0,1,7.14,7.13C466.86,110.9,463.55,152.1,449.43,166.21Z" transform="translate(0 0)"/><path d="M361.41,67.85l-6.53,6.53A7.5,7.5,0,1,0,365.49,85L372,78.45a7.5,7.5,0,1,0-10.61-10.6Z" transform="translate(0 0)"/><path d="M433.55,140,427,146.51a7.5,7.5,0,1,0,10.6,10.61l6.54-6.53A7.5,7.5,0,0,0,433.55,140Z" transform="translate(0 0)"/><path d="M405.11,116.71a9.51,9.51,0,0,1-9.82-9.82,7.5,7.5,0,0,0-15-1,24.53,24.53,0,0,0,24.24,25.84c.51,0,1,0,1.55,0a7.5,7.5,0,0,0-1-15Z" transform="translate(0 0)"/><path d="M501.46,30.4a26.68,26.68,0,0,0-19.84-19.85C465.23,6.61,432.75,0,399.39,0c-40.06,0-69.75,9.39-88.27,27.9L272.05,67c-12.48,12.45-33.46,14.57-60,17.26-19.84,2-42.33,4.29-67.66,11.16a7.5,7.5,0,0,0,3.93,14.48c24.14-6.56,46-8.77,65.24-10.71,10.9-1.11,21-2.12,30.11-3.78L122.48,216.54,59.57,153.63a271.28,271.28,0,0,1,59.6-33.92,7.5,7.5,0,0,0-5.67-13.89C89.15,115.75,66.28,129.2,43.57,147c-4,3.11-8.14,6.5-12.32,10.07-16,13.65-16.82,38.81-2,53.62L118,299.43A87.18,87.18,0,0,0,103,301.92a22.09,22.09,0,0,0-15.72,25.8c-14.7,3.59-41.78,13.44-62,39.64C2.35,396.92-5,438.23,3.32,490.12a22.37,22.37,0,0,0,18.56,18.56,247.16,247.16,0,0,0,39,3.29,184.64,184.64,0,0,0,20.31-1.08A7.5,7.5,0,0,0,79.53,496c-16.53,1.84-35.12,1.12-55.27-2.11a7.4,7.4,0,0,1-6.13-6.13C10.5,440.2,16.83,402.84,37,376.68S86.13,343,95.86,341.24l6.89,6.89a95.25,95.25,0,0,0-27.66,24.29C60,392.16,52.21,419.13,51.84,452.58a7.56,7.56,0,0,0,7.5,7.58h.09c33.45-.37,60.41-8.19,80.15-23.25a95.45,95.45,0,0,0,24.3-27.66l6.9,6.9c-2.3,12.6-13.95,57.39-64.76,74.21a7.5,7.5,0,0,0,4.72,14.24c52.77-17.47,68.93-61.09,73.53-79.86A21.86,21.86,0,0,0,210.08,409a86.07,86.07,0,0,0,2.5-15l88.76,88.75c14.84,14.84,40,14,53.62-2,3.58-4.18,7-8.32,10.08-12.32,52.48-67.11,58.41-125.69,62.73-168.46,2.69-26.58,4.82-47.57,17.3-60.06l39-39c18.81-18.82,28.2-49.18,27.89-90.22C511.74,77.93,505.28,46.32,501.46,30.4ZM152.86,398.23A81.26,81.26,0,0,1,130.48,425c-15.37,11.72-37.17,18.55-63.39,19.92,1.37-26.22,8.2-48,19.93-63.39a81.24,81.24,0,0,1,26.75-22.38Zm42.72,7a7,7,0,0,1-11.53,3L103.79,328a7,7,0,0,1,3-11.53,80.92,80.92,0,0,1,20-2.35c2.5,0,4.61.1,6.1.2l64.88,64.88C198.05,383.88,198.36,394.7,195.58,405.21ZM33.52,183.89A21.17,21.17,0,0,1,41,168.45q3.34-2.87,6.64-5.54l64.24,64.24L89.41,249.61,39.85,200.06A21.45,21.45,0,0,1,33.52,183.89Zm89,53.87L274.24,389.52,251.78,412,100,260.22ZM343.55,471a21.75,21.75,0,0,1-31.61,1.14l-49.55-49.56,22.46-22.46,64.24,64.24Q346.42,467.66,343.55,471Zm69.3-172.55c-4.22,41.69-9.44,93.22-54.48,154l-62.91-62.91L416.62,268.35C415,277.52,414,287.56,412.85,298.46ZM473.5,190.27,284.85,378.91,133.09,227.15,321.73,38.5c8.25-8.25,19.65-14.42,33.88-18.33C368.06,16.74,382.79,15,399.39,15c31.82,0,63,6.35,78.73,10.13a11.76,11.76,0,0,1,8.75,8.76C493.37,60.94,511.62,152.15,473.5,190.27Z" transform="translate(0 0)"/></svg>