<svg id="Layer_1" data-name="Layer 1" xmlns="http://www.w3.org/2000/svg" viewBox="0 0 217.19 193.12"><defs><style>.cls-1{fill:#ffeb99;}.cls-2{fill:#ffde55;}.cls-3{fill:#92dd7a;}.cls-4{fill:#a0f0f2;}.cls-5{fill:#7de2e2;}.cls-6{fill:#ff737d;}.cls-7{fill:#ed5d5d;}</style></defs><title>ufo</title><g id="ovni"><path id="Path_61" data-name="Path 61" class="cls-1" d="M161.3,122,109,136l-2.15,58.88a20.57,20.57,0,0,0,19.79,21.3,20.77,20.77,0,0,0,6.08-.69l47.81-12.82a20.56,20.56,0,0,0,12.09-30.78Z" transform="translate(-21.66 -26.35)"/><path id="Path_62" data-name="Path 62" class="cls-2" d="M133.52,129.41,109,136l-2.15,58.88a20.57,20.57,0,0,0,19.79,21.3,20.77,20.77,0,0,0,6.08-.69L143,212.73Z" transform="translate(-21.66 -26.35)"/><g id="Group_6" data-name="Group 6"><path id="Path_63" data-name="Path 63" class="cls-3" d="M88.81,131.05a21.77,21.77,0,1,1-26.67-15.39h0A21.78,21.78,0,0,1,88.81,131.05Z" transform="translate(-21.66 -26.35)"/><path id="Path_64" data-name="Path 64" class="cls-3" d="M218.37,96.31a21.77,21.77,0,1,1-26.66-15.38h0A21.76,21.76,0,0,1,218.37,96.31Z" transform="translate(-21.66 -26.35)"/><path id="Path_65" data-name="Path 65" class="cls-3" d="M165.58,110.76A34.11,34.11,0,1,1,123.8,86.65h0a34.11,34.11,0,0,1,41.78,24.11Z" transform="translate(-21.66 -26.35)"/></g><path id="Path_66" data-name="Path 66" class="cls-4" d="M109.2,32.18A73.91,73.91,0,0,0,57,122.71L199.72,84.43A73.91,73.91,0,0,0,109.2,32.18Z" transform="translate(-21.66 -26.35)"/><path id="Path_67" data-name="Path 67" class="cls-5" d="M191.44,65c-28.35.61-58.34,8-71.51,7.16C101.21,71,91.7,51.08,88.19,41.49A73.94,73.94,0,0,0,57,122.71L199.72,84.43A74.18,74.18,0,0,0,191.44,65Z" transform="translate(-21.66 -26.35)"/><path id="Path_68" data-name="Path 68" class="cls-6" d="M235.43,82.52C232.6,72,183.21,76,125.13,91.59s-102.88,36.77-100,47.33,52.22,6.5,110.3-9.07S238.26,93.09,235.43,82.52Z" transform="translate(-21.66 -26.35)"/><path id="Path_69" data-name="Path 69" class="cls-7" d="M115.66,94.21c-53.4,15.25-93.25,34.73-90.58,44.71s46.93,6.91,100.8-6.6c-.29,0-21.92,1.49-26.59-13.3S115.65,94.21,115.66,94.21Z" transform="translate(-21.66 -26.35)"/><path id="Path_70" data-name="Path 70" d="M154.06,63.05a3.29,3.29,0,0,0,2.33-4h0L155,53.75a3.28,3.28,0,1,0-6.34,1.71h0L150,60.72A3.28,3.28,0,0,0,154.06,63.05Z" transform="translate(-21.66 -26.35)"/><path id="Path_71" data-name="Path 71" d="M80.35,73.76,81.77,79a3.28,3.28,0,1,0,6.34-1.7L86.7,72.06a3.29,3.29,0,0,0-6.35,1.7Z" transform="translate(-21.66 -26.35)"/><path id="Path_72" data-name="Path 72" d="M126.16,64.44a13.12,13.12,0,0,1-15.51,4.16,3.29,3.29,0,0,0-2.55,6.06,19.67,19.67,0,0,0,23.29-6.25,3.28,3.28,0,0,0-5.23-4Z" transform="translate(-21.66 -26.35)"/><path id="Path_73" data-name="Path 73" d="M225.64,74c-6.15-.89-19-.77-26,0a77.45,77.45,0,0,0-50.75-44.91,3.29,3.29,0,1,0-1.76,6.33h0a70.92,70.92,0,0,1,45.65,39.27c-19.71,2.22-43.69,7-68.54,13.66s-48,14.53-66.19,22.46a70.68,70.68,0,0,1,77.67-77.56,3.29,3.29,0,0,0,.69-6.54,77.2,77.2,0,0,0-84.64,86.94c-6.66,3-17.61,9.11-22.49,13-6.07,4.78-8.49,9.07-7.41,13.09s5.32,6.53,13,7.63a78.19,78.19,0,0,0,10.6.69,24.89,24.89,0,0,0,6.77,8.25c.84.67,3.31,1.25,4.62-.54a3.35,3.35,0,0,0-.55-4.62,18.13,18.13,0,0,1-3.21-3.28c2.12-.1,4.36-.24,6.69-.44,7.56-.62,15.91-1.68,24.82-3.14a18.49,18.49,0,0,1-17.47,10.85,3.29,3.29,0,0,0-.22,6.57A25.1,25.1,0,0,0,92,143.05c3.28-.6,6.63-1.24,10-1.94a36.15,36.15,0,0,0,3.33,4.08l-1.81,49.57a23.85,23.85,0,0,0,23,24.7,24.22,24.22,0,0,0,7-.8l47.81-12.82a23.84,23.84,0,0,0,14-35.71l-19.2-30.6a3.29,3.29,0,0,0-5.62,3.42l0,.07,19.2,30.6a17.27,17.27,0,0,1-5.45,23.81,17,17,0,0,1-4.71,2L131.87,212.3a17.28,17.28,0,0,1-21.16-12.2,17.64,17.64,0,0,1-.58-5.11l1.63-44.39a37.37,37.37,0,0,0,58.12-27.67q5-1.65,9.66-3.35a25.06,25.06,0,0,0,42.83-18.92,78.81,78.81,0,0,0,8.83-5.89c6.06-4.79,8.48-9.07,7.4-13.1S233.29,75.15,225.64,74Zm-85,75.33a30.67,30.67,0,0,1-31.44-9.76C118,137.7,127,135.49,136.24,133s18.14-5.1,26.71-7.83A31.06,31.06,0,0,1,140.62,149.37Zm61.51-29.56A18.52,18.52,0,0,1,186.59,117c8.44-3.19,16.21-6.45,23.07-9.7q3.18-1.52,6-3A18.43,18.43,0,0,1,202.13,119.81Zm4.72-18.47c-18.73,8.86-44.41,17.86-72.32,25.34s-54.64,12.54-75.29,14.24c-24.14,2-30.62-1.48-31-2.85s3.51-7.61,25.4-18c18.73-8.85,44.41-17.85,72.32-25.33s54.65-12.54,75.29-14.24c24.14-2,30.62,1.48,31,2.85S228.74,91,206.85,101.34Z" transform="translate(-21.66 -26.35)"/></g></svg>